<svg width="512" height="512" viewBox="0 0 512 512" fill="none" xmlns="http://www.w3.org/2000/svg">
<g filter="url(#filter0_ii_136_229)">
<circle cx="256" cy="256" r="256" fill="#22071A"/>
</g>
<g filter="url(#filter1_i_136_229)">
<path d="M237.061 449C218.061 449 200.394 445.167 184.061 437.5C167.727 429.833 154.394 418.833 144.061 404.5C140.061 398.5 138.061 392.667 138.061 387C138.061 378.667 141.227 371.667 147.561 366C154.227 360.333 160.727 357.5 167.061 357.5C172.061 357.5 176.894 359 181.561 362C186.561 365 191.061 368.5 195.061 372.5C201.727 378.5 208.227 382.833 214.561 385.5C221.227 387.833 228.727 389 237.061 389C247.061 389 256.394 386.5 265.061 381.5C273.727 376.5 280.727 369.833 286.061 361.5C291.394 353.167 294.061 344.167 294.061 334.5V124.5C294.061 115.833 297.227 108.667 303.561 103C309.894 97 317.227 94 325.561 94C334.894 94 342.394 97 348.061 103C353.727 108.667 356.561 115.833 356.561 124.5V334.5C356.561 354.833 351.227 373.667 340.561 391C329.894 408.333 315.561 422.333 297.561 433C279.561 443.667 259.394 449 237.061 449Z" fill="#E0A38E"/>
</g>
<defs>
<filter id="filter0_ii_136_229" x="-24" y="-24" width="560" height="560" filterUnits="userSpaceOnUse" color-interpolation-filters="sRGB">
<feFlood flood-opacity="0" result="BackgroundImageFix"/>
<feBlend mode="normal" in="SourceGraphic" in2="BackgroundImageFix" result="shape"/>
<feColorMatrix in="SourceAlpha" type="matrix" values="0 0 0 0 0 0 0 0 0 0 0 0 0 0 0 0 0 0 127 0" result="hardAlpha"/>
<feMorphology radius="16" operator="erode" in="SourceAlpha" result="effect1_innerShadow_136_229"/>
<feOffset dx="24" dy="24"/>
<feGaussianBlur stdDeviation="16"/>
<feComposite in2="hardAlpha" operator="arithmetic" k2="-1" k3="1"/>
<feColorMatrix type="matrix" values="0 0 0 0 0.158515 0 0 0 0 0.610577 0 0 0 0 0.535233 0 0 0 1 0"/>
<feBlend mode="normal" in2="shape" result="effect1_innerShadow_136_229"/>
<feColorMatrix in="SourceAlpha" type="matrix" values="0 0 0 0 0 0 0 0 0 0 0 0 0 0 0 0 0 0 127 0" result="hardAlpha"/>
<feMorphology radius="16" operator="erode" in="SourceAlpha" result="effect2_innerShadow_136_229"/>
<feOffset dx="-24" dy="-24"/>
<feGaussianBlur stdDeviation="32"/>
<feComposite in2="hardAlpha" operator="arithmetic" k2="-1" k3="1"/>
<feColorMatrix type="matrix" values="0 0 0 0 0.470588 0 0 0 0 0.168627 0 0 0 0 0.384314 0 0 0 1 0"/>
<feBlend mode="normal" in2="effect1_innerShadow_136_229" result="effect2_innerShadow_136_229"/>
</filter>
<filter id="filter1_i_136_229" x="138.061" y="94" width="222.5" height="359" filterUnits="userSpaceOnUse" color-interpolation-filters="sRGB">
<feFlood flood-opacity="0" result="BackgroundImageFix"/>
<feBlend mode="normal" in="SourceGraphic" in2="BackgroundImageFix" result="shape"/>
<feColorMatrix in="SourceAlpha" type="matrix" values="0 0 0 0 0 0 0 0 0 0 0 0 0 0 0 0 0 0 127 0" result="hardAlpha"/>
<feOffset dx="8" dy="8"/>
<feGaussianBlur stdDeviation="2"/>
<feComposite in2="hardAlpha" operator="arithmetic" k2="-1" k3="1"/>
<feColorMatrix type="matrix" values="0 0 0 0 0 0 0 0 0 0 0 0 0 0 0 0 0 0 0.25 0"/>
<feBlend mode="normal" in2="shape" result="effect1_innerShadow_136_229"/>
</filter>
</defs>
</svg>
