<svg width="393" height="852" viewBox="0 0 393 852" fill="none" xmlns="http://www.w3.org/2000/svg">
<path d="M293.806 702.221C234.661 728.231 183.36 764.182 139.905 810.074C96.45 855.966 62.5575 846.904 38.2277 782.889C13.8979 718.873 -9.88562 673.537 -33.1228 646.88C-56.36 620.222 -66.9084 586.198 -64.768 544.806C-62.6276 503.415 -42.1785 475.95 -3.42082 462.412C35.3369 448.874 77.2713 432.392 122.382 412.965C167.494 393.539 213.695 399.33 260.987 430.34C308.278 461.35 340.358 507.913 357.224 570.03C374.091 632.148 352.952 676.211 293.806 702.221Z" fill="#289C88"/>
<g clip-path="url(#clip0_134_165)">
<path d="M502.315 459.232C532.403 422.483 548.707 377.693 551.227 324.863C553.747 272.033 534.157 227.89 492.458 192.434C450.758 156.977 406.162 147.576 358.671 164.229C311.18 180.882 260.667 194.126 207.133 203.96C153.599 213.793 131.784 245.223 141.69 298.249C151.596 351.274 161.713 400.957 172.043 447.297C182.372 493.637 210.661 526.683 256.911 546.436C303.16 566.189 348.101 565.781 391.733 545.211C435.366 524.641 472.227 495.981 502.315 459.232Z" fill="#782B62"/>
</g>
<g clip-path="url(#clip1_134_165)">
<path d="M188.279 177.815C190.577 193.583 188.018 210.334 180.601 228.069C173.183 245.804 160.675 250.186 143.076 241.216C125.477 232.247 107.746 231.948 89.8826 240.322C72.0192 248.695 55.6334 247.771 40.7251 237.55C25.8169 227.329 12.827 214.851 1.75529 200.116C-9.31637 185.38 -17.8404 168.794 -23.8168 150.358C-29.7932 131.922 -33.1429 112.073 -33.8658 90.8102C-34.5887 69.5478 -27.9441 50.8068 -13.932 34.5872C0.080145 18.3676 17.3029 8.37386 37.7363 4.6059C58.1698 0.837944 77.009 -0.800809 94.2541 -0.310357C111.499 0.180095 127.078 4.51446 140.992 12.6927C154.905 20.871 167.296 29.4638 178.164 38.4711C189.033 47.4783 200.255 56.9077 211.832 66.7592C223.409 76.6106 231.545 89.1339 236.24 104.329C240.935 119.524 233.541 131.629 214.057 140.642C194.573 149.656 185.98 162.047 188.279 177.815Z" fill="#E0A38E"/>
</g>
<defs>
<clipPath id="clip0_134_165">
<rect width="523.169" height="523.169" fill="white" transform="matrix(0.60145 0.79891 0.79891 -0.60145 -28.4384 304.225)"/>
</clipPath>
<clipPath id="clip1_134_165">
<rect width="354.863" height="354.863" fill="white" transform="translate(26.1062 -108) rotate(23.4305)"/>
</clipPath>
</defs>
</svg>
