<svg width="1440" height="1024" viewBox="0 0 1440 1024" fill="none" xmlns="http://www.w3.org/2000/svg">
<g clip-path="url(#clip0_133_162)">
<path d="M391.172 256.472C396.66 294.123 390.548 334.122 372.838 376.469C355.127 418.816 325.26 429.281 283.237 407.862C241.214 386.444 198.875 385.732 156.221 405.726C113.566 425.72 74.44 423.514 38.842 399.108C3.24398 374.703 -27.7735 344.907 -54.2106 309.721C-80.6476 274.536 -101.001 234.932 -115.272 190.91C-129.542 146.888 -137.541 99.4916 -139.267 48.721C-140.993 -2.04965 -125.127 -46.7996 -91.6688 -85.5289C-58.2105 -124.258 -17.0858 -148.121 31.7053 -157.119C80.4965 -166.116 125.481 -170.029 166.659 -168.858C207.837 -167.687 245.037 -157.337 278.26 -137.809C311.482 -118.281 341.069 -97.7627 367.021 -76.255C392.972 -54.7474 419.77 -32.2318 447.413 -8.70842C475.056 14.815 494.483 44.7182 505.694 81.0012C516.906 117.284 499.249 146.187 452.726 167.711C406.202 189.234 385.684 218.821 391.172 256.472Z" fill="#E0A38E"/>
</g>
<path d="M747.011 1102C625.45 1197.01 527.894 1310.39 454.344 1442.17C380.794 1573.95 297.028 1572.93 203.048 1439.11C109.067 1305.29 27.3451 1214.37 -42.1188 1166.36C-111.583 1118.35 -156.019 1045.82 -175.428 948.774C-194.837 851.729 -163.681 776.136 -81.9584 721.995C-0.236142 667.854 87.1045 605.03 180.064 533.523C273.023 462.016 383.348 448.225 511.038 492.151C638.729 536.077 740.372 624.95 815.965 758.77C891.558 892.59 868.573 1007 747.011 1102Z" fill="#289C88"/>
<g clip-path="url(#clip1_133_162)">
<path d="M1302.03 721.951C1363.14 647.309 1396.25 556.336 1401.37 449.032C1406.49 341.727 1366.7 252.067 1282 180.051C1197.31 108.035 1106.73 88.939 1010.27 122.764C913.807 156.588 811.209 183.488 702.474 203.462C593.739 223.435 549.432 287.273 569.551 394.975C589.671 502.676 610.221 603.588 631.201 697.71C652.182 791.832 709.641 858.953 803.579 899.074C897.516 939.194 988.797 938.365 1077.42 896.584C1166.04 854.804 1240.91 796.593 1302.03 721.951Z" fill="#782B62"/>
</g>
<defs>
<clipPath id="clip0_133_162">
<rect width="847.345" height="847.345" fill="white" transform="translate(3.93475 -426) rotate(23.4305)"/>
</clipPath>
<clipPath id="clip1_133_162">
<rect width="1062.62" height="1062.62" fill="white" transform="matrix(0.60145 0.79891 0.79891 -0.60145 224 407.113)"/>
</clipPath>
</defs>
</svg>
